<svg width="140" height="32" viewBox="0 0 140 32" fill="none" xmlns="http://www.w3.org/2000/svg">
  <!-- Background Circle for Icon -->
  <circle cx="16" cy="16" r="16" fill="#059669"/>
  
  <!-- Lightning Bolt Icon -->
  <path d="M19.3 7.046A1 1 0 0120 8v5h4a1 1 0 01.82 1.573l-7 10A1 1 0 0116 24v-5h-4a1 1 0 01-.82-1.573l7-10a1 1 0 011.12-.38z" 
        fill="white" fill-rule="evenodd" clip-rule="evenodd"/>
  
  <!-- Text "Blazt" -->
  <text x="40" y="21" font-family="system-ui, -apple-system, BlinkMacSystemFont, sans-serif" font-size="20" font-weight="600" fill="#111827">
    Blazt
  </text>
</svg>20" height="32" viewBox="0 0 120 32" fill="none" xmlns="http://www.w3.org/2000/svg">
  <!-- Background Circle for Icon -->
  <circle cx="16" cy="16" r="16" fill="#059669"/>
  
  <!-- Lightning Bolt Icon -->
  <path d="M19.3 7.046A1 1 0 0120 8v5h4a1 1 0 01.82 1.573l-7 10A1 1 0 0116 24v-5h-4a1 1 0 01-.82-1.573l7-10a1 1 0 011.12-.38z" 
        fill="white" fill-rule="evenodd" clip-rule="evenodd"/>
  
  <!-- Text "Blazt" -->
  <text x="40" y="21" font-family="system-ui, -apple-system, sans-serif" font-size="18" font-weight="600" fill="currentColor">
    Blazt
  </text>
</svg>
